# xmcd
#
# Track frame offsets:
#	150
#	19385
#	38510
#	54371
#	75022
#	94061
#	110665
#	124338
#	135399
#	154246
#	176290
#	195905
#	213610
#	232851
#	254119
#	276396
#	296655
#	317931
#
# Disc length: 4570 seconds
#
# Revision: 6
# Processed by: cddbd v1.5.2PL0 Copyright (c) Steve Scherf et al.
# Submitted via: EasyCDDAExtractor 11.0.2.1
#
DISCID=fa11d812
DTITLE=Various Artist - Trance Classics - The Biggest Trance Hits of All Time
DTITLE=[CD2]
DYEAR=2002
DGENRE=Trance
TTITLE0=N-Trance - Set You Free (Flip and Fill Remix)
TTITLE1=William Orbit - Barber's Adagio For Strings (Ferry Corsten Mix)
TTITLE2=Chicane - Don't Give Up
TTITLE3=Iio - Rapture (Riva Mix)
TTITLE4=Riva - Who Do You Love Now (Stringer) (Monoboy Remix)
TTITLE5=Darude - Sandstorm
TTITLE6=ATB - 9PM (Till I Come) (Sequential One 1999 Remix)
TTITLE7=DJ Jean - The Launch
TTITLE8=Nightwatchers - Insomnia
TTITLE9=Mario Piu - Communication (Somebody Answer The Phone) (Yomanda Remix) 
TTITLE10=Storm - Time To Burn
TTITLE11=Zombie Nation - Kernkraft 400 (DJ Gius Remix)
TTITLE12=Hi-Gate - Pitchin' (In Every Direction) (Extended Vocal Remix)
TTITLE13=Lost Witness - Happiness Happening (Lange Remix)
TTITLE14=System F - Out Of The Blue
TTITLE15=Gouryella - Gouryella
TTITLE16=York - The Awakening (Quake Remix)
TTITLE17=Paul van Dyk - For An Angel (PvD E-Werk Club Remix)
EXTD=
EXTT0=
EXTT1=
EXTT2=
EXTT3=
EXTT4=
EXTT5=
EXTT6=
EXTT7=
EXTT8=
EXTT9=
EXTT10=
EXTT11=
EXTT12=
EXTT13=
EXTT14=
EXTT15=
EXTT16=
EXTT17=
PLAYORDER=
